<mxfile host="app.diagrams.net" agent="Mozilla/5.0 (Windows NT 10.0; Win64; x64) AppleWebKit/537.36 (KHTML, like Gecko) Chrome/131.0.0.0 Safari/537.36" version="25.0.0" pages="2">
  <diagram name="Страница — 1" id="9mJiU4TVVlzBmLebgyLP">
    <mxGraphModel dx="2062" dy="624" grid="1" gridSize="10" guides="1" tooltips="1" connect="1" arrows="1" fold="1" page="1" pageScale="1" pageWidth="827" pageHeight="1169" math="0" shadow="0">
      <root>
        <mxCell id="0" />
        <mxCell id="1" parent="0" />
        <mxCell id="LQe9CcHPuyP-OYNtVBTy-15" style="edgeStyle=orthogonalEdgeStyle;rounded=0;orthogonalLoop=1;jettySize=auto;html=1;entryX=0.5;entryY=1;entryDx=0;entryDy=0;dashed=1;curved=1;" parent="1" source="LQe9CcHPuyP-OYNtVBTy-1" target="LQe9CcHPuyP-OYNtVBTy-12" edge="1">
          <mxGeometry relative="1" as="geometry" />
        </mxCell>
        <mxCell id="LQe9CcHPuyP-OYNtVBTy-16" value="include" style="edgeLabel;html=1;align=center;verticalAlign=middle;resizable=0;points=[];" parent="LQe9CcHPuyP-OYNtVBTy-15" vertex="1" connectable="0">
          <mxGeometry x="0.0201" y="3" relative="1" as="geometry">
            <mxPoint as="offset" />
          </mxGeometry>
        </mxCell>
        <mxCell id="LQe9CcHPuyP-OYNtVBTy-1" value="Просмотр мероприятий" style="ellipse;whiteSpace=wrap;html=1;" parent="1" vertex="1">
          <mxGeometry x="344" y="470" width="140" height="70" as="geometry" />
        </mxCell>
        <mxCell id="LQe9CcHPuyP-OYNtVBTy-13" style="edgeStyle=orthogonalEdgeStyle;rounded=0;orthogonalLoop=1;jettySize=auto;html=1;entryX=1;entryY=0.5;entryDx=0;entryDy=0;dashed=1;curved=1;" parent="1" source="LQe9CcHPuyP-OYNtVBTy-2" target="LQe9CcHPuyP-OYNtVBTy-12" edge="1">
          <mxGeometry relative="1" as="geometry" />
        </mxCell>
        <mxCell id="LQe9CcHPuyP-OYNtVBTy-17" value="extends" style="edgeLabel;html=1;align=center;verticalAlign=middle;resizable=0;points=[];" parent="LQe9CcHPuyP-OYNtVBTy-13" vertex="1" connectable="0">
          <mxGeometry x="-0.6021" relative="1" as="geometry">
            <mxPoint as="offset" />
          </mxGeometry>
        </mxCell>
        <mxCell id="LQe9CcHPuyP-OYNtVBTy-2" value="Отменить мероприятий" style="ellipse;whiteSpace=wrap;html=1;" parent="1" vertex="1">
          <mxGeometry x="360" y="250" width="140" height="70" as="geometry" />
        </mxCell>
        <mxCell id="LQe9CcHPuyP-OYNtVBTy-14" value="" style="edgeStyle=orthogonalEdgeStyle;rounded=0;orthogonalLoop=1;jettySize=auto;html=1;dashed=1;curved=1;" parent="1" source="LQe9CcHPuyP-OYNtVBTy-3" target="LQe9CcHPuyP-OYNtVBTy-12" edge="1">
          <mxGeometry relative="1" as="geometry" />
        </mxCell>
        <mxCell id="LQe9CcHPuyP-OYNtVBTy-18" value="extends" style="edgeLabel;html=1;align=center;verticalAlign=middle;resizable=0;points=[];" parent="LQe9CcHPuyP-OYNtVBTy-14" vertex="1" connectable="0">
          <mxGeometry x="-0.304" relative="1" as="geometry">
            <mxPoint as="offset" />
          </mxGeometry>
        </mxCell>
        <mxCell id="LQe9CcHPuyP-OYNtVBTy-3" value="Бронирование мероприятий" style="ellipse;whiteSpace=wrap;html=1;" parent="1" vertex="1">
          <mxGeometry x="370" y="350" width="140" height="70" as="geometry" />
        </mxCell>
        <mxCell id="LQe9CcHPuyP-OYNtVBTy-19" style="edgeStyle=orthogonalEdgeStyle;rounded=0;orthogonalLoop=1;jettySize=auto;html=1;entryX=0;entryY=0.5;entryDx=0;entryDy=0;endArrow=none;endFill=0;curved=1;" parent="1" source="LQe9CcHPuyP-OYNtVBTy-4" target="LQe9CcHPuyP-OYNtVBTy-12" edge="1">
          <mxGeometry relative="1" as="geometry" />
        </mxCell>
        <mxCell id="LQe9CcHPuyP-OYNtVBTy-4" value="Пользователь" style="shape=umlActor;verticalLabelPosition=bottom;verticalAlign=top;html=1;" parent="1" vertex="1">
          <mxGeometry x="-20" y="240" width="30" height="60" as="geometry" />
        </mxCell>
        <mxCell id="LQe9CcHPuyP-OYNtVBTy-32" style="edgeStyle=orthogonalEdgeStyle;rounded=0;orthogonalLoop=1;jettySize=auto;html=1;entryX=0;entryY=0.5;entryDx=0;entryDy=0;endArrow=none;endFill=0;curved=1;" parent="1" source="LQe9CcHPuyP-OYNtVBTy-5" target="LQe9CcHPuyP-OYNtVBTy-26" edge="1">
          <mxGeometry relative="1" as="geometry" />
        </mxCell>
        <mxCell id="LQe9CcHPuyP-OYNtVBTy-33" style="edgeStyle=orthogonalEdgeStyle;rounded=0;orthogonalLoop=1;jettySize=auto;html=1;entryX=0;entryY=0.5;entryDx=0;entryDy=0;endArrow=none;endFill=0;curved=1;" parent="1" source="LQe9CcHPuyP-OYNtVBTy-5" target="LQe9CcHPuyP-OYNtVBTy-31" edge="1">
          <mxGeometry relative="1" as="geometry" />
        </mxCell>
        <mxCell id="LQe9CcHPuyP-OYNtVBTy-5" value="Администратор" style="shape=umlActor;verticalLabelPosition=bottom;verticalAlign=top;html=1;" parent="1" vertex="1">
          <mxGeometry x="-40" y="695" width="30" height="60" as="geometry" />
        </mxCell>
        <mxCell id="LQe9CcHPuyP-OYNtVBTy-24" style="edgeStyle=orthogonalEdgeStyle;rounded=0;orthogonalLoop=1;jettySize=auto;html=1;entryX=0;entryY=0.5;entryDx=0;entryDy=0;endArrow=none;endFill=0;curved=1;" parent="1" source="LQe9CcHPuyP-OYNtVBTy-6" target="LQe9CcHPuyP-OYNtVBTy-22" edge="1">
          <mxGeometry relative="1" as="geometry" />
        </mxCell>
        <mxCell id="LQe9CcHPuyP-OYNtVBTy-6" value="Гость" style="shape=umlActor;verticalLabelPosition=bottom;verticalAlign=top;html=1;" parent="1" vertex="1">
          <mxGeometry x="-20" y="450" width="30" height="60" as="geometry" />
        </mxCell>
        <mxCell id="LQe9CcHPuyP-OYNtVBTy-12" value="Заказ мероприятий" style="ellipse;whiteSpace=wrap;html=1;" parent="1" vertex="1">
          <mxGeometry x="130" y="350" width="140" height="70" as="geometry" />
        </mxCell>
        <mxCell id="LQe9CcHPuyP-OYNtVBTy-21" style="edgeStyle=orthogonalEdgeStyle;rounded=0;orthogonalLoop=1;jettySize=auto;html=1;entryX=1;entryY=0.5;entryDx=0;entryDy=0;dashed=1;curved=1;" parent="1" source="LQe9CcHPuyP-OYNtVBTy-20" target="LQe9CcHPuyP-OYNtVBTy-3" edge="1">
          <mxGeometry relative="1" as="geometry" />
        </mxCell>
        <mxCell id="LQe9CcHPuyP-OYNtVBTy-20" value="Предоплата" style="ellipse;whiteSpace=wrap;html=1;" parent="1" vertex="1">
          <mxGeometry x="610" y="350" width="140" height="70" as="geometry" />
        </mxCell>
        <mxCell id="LQe9CcHPuyP-OYNtVBTy-22" value="Регистрация" style="ellipse;whiteSpace=wrap;html=1;" parent="1" vertex="1">
          <mxGeometry x="210" y="585" width="140" height="70" as="geometry" />
        </mxCell>
        <mxCell id="LQe9CcHPuyP-OYNtVBTy-23" style="edgeStyle=orthogonalEdgeStyle;rounded=0;orthogonalLoop=1;jettySize=auto;html=1;entryX=0.5;entryY=1;entryDx=0;entryDy=0;endArrow=none;endFill=0;curved=1;" parent="1" source="LQe9CcHPuyP-OYNtVBTy-6" target="LQe9CcHPuyP-OYNtVBTy-1" edge="1">
          <mxGeometry relative="1" as="geometry" />
        </mxCell>
        <mxCell id="LQe9CcHPuyP-OYNtVBTy-34" style="edgeStyle=orthogonalEdgeStyle;rounded=0;orthogonalLoop=1;jettySize=auto;html=1;entryX=0;entryY=0.5;entryDx=0;entryDy=0;dashed=1;curved=1;" parent="1" source="LQe9CcHPuyP-OYNtVBTy-26" target="LQe9CcHPuyP-OYNtVBTy-27" edge="1">
          <mxGeometry relative="1" as="geometry" />
        </mxCell>
        <mxCell id="LQe9CcHPuyP-OYNtVBTy-35" style="edgeStyle=orthogonalEdgeStyle;rounded=0;orthogonalLoop=1;jettySize=auto;html=1;entryX=0;entryY=0.5;entryDx=0;entryDy=0;dashed=1;" parent="1" source="LQe9CcHPuyP-OYNtVBTy-26" target="LQe9CcHPuyP-OYNtVBTy-28" edge="1">
          <mxGeometry relative="1" as="geometry" />
        </mxCell>
        <mxCell id="LQe9CcHPuyP-OYNtVBTy-36" style="edgeStyle=orthogonalEdgeStyle;rounded=0;orthogonalLoop=1;jettySize=auto;html=1;entryX=0;entryY=0.5;entryDx=0;entryDy=0;dashed=1;curved=1;" parent="1" source="LQe9CcHPuyP-OYNtVBTy-26" target="LQe9CcHPuyP-OYNtVBTy-29" edge="1">
          <mxGeometry relative="1" as="geometry" />
        </mxCell>
        <mxCell id="LQe9CcHPuyP-OYNtVBTy-37" style="edgeStyle=orthogonalEdgeStyle;rounded=0;orthogonalLoop=1;jettySize=auto;html=1;entryX=0;entryY=0.5;entryDx=0;entryDy=0;dashed=1;curved=1;" parent="1" source="LQe9CcHPuyP-OYNtVBTy-26" target="LQe9CcHPuyP-OYNtVBTy-30" edge="1">
          <mxGeometry relative="1" as="geometry" />
        </mxCell>
        <mxCell id="LQe9CcHPuyP-OYNtVBTy-26" value="Управление мероприятий" style="ellipse;whiteSpace=wrap;html=1;" parent="1" vertex="1">
          <mxGeometry x="210" y="690" width="140" height="70" as="geometry" />
        </mxCell>
        <mxCell id="LQe9CcHPuyP-OYNtVBTy-27" value="Редактирование" style="ellipse;whiteSpace=wrap;html=1;" parent="1" vertex="1">
          <mxGeometry x="484" y="620" width="96" height="60" as="geometry" />
        </mxCell>
        <mxCell id="LQe9CcHPuyP-OYNtVBTy-28" value="Удаление" style="ellipse;whiteSpace=wrap;html=1;" parent="1" vertex="1">
          <mxGeometry x="484" y="695" width="96" height="60" as="geometry" />
        </mxCell>
        <mxCell id="LQe9CcHPuyP-OYNtVBTy-29" value="Просмотр" style="ellipse;whiteSpace=wrap;html=1;" parent="1" vertex="1">
          <mxGeometry x="484" y="780" width="96" height="60" as="geometry" />
        </mxCell>
        <mxCell id="LQe9CcHPuyP-OYNtVBTy-30" value="Добавление" style="ellipse;whiteSpace=wrap;html=1;" parent="1" vertex="1">
          <mxGeometry x="490" y="850" width="96" height="60" as="geometry" />
        </mxCell>
        <mxCell id="LQe9CcHPuyP-OYNtVBTy-31" value="Просмотр бронирование" style="ellipse;whiteSpace=wrap;html=1;" parent="1" vertex="1">
          <mxGeometry x="210" y="810" width="140" height="70" as="geometry" />
        </mxCell>
      </root>
    </mxGraphModel>
  </diagram>
  <diagram id="JwU7XuRmjI6iFg5Gzlcl" name="Страница — 2">
    <mxGraphModel dx="1500" dy="757" grid="1" gridSize="10" guides="1" tooltips="1" connect="1" arrows="1" fold="1" page="1" pageScale="1" pageWidth="827" pageHeight="1169" math="0" shadow="0">
      <root>
        <mxCell id="0" />
        <mxCell id="1" parent="0" />
        <mxCell id="zcSXq9ACbwz9R9wpJ7Tj-13" style="edgeStyle=orthogonalEdgeStyle;rounded=0;orthogonalLoop=1;jettySize=auto;html=1;entryX=0;entryY=0.5;entryDx=0;entryDy=0;" edge="1" parent="1" source="zcSXq9ACbwz9R9wpJ7Tj-3" target="zcSXq9ACbwz9R9wpJ7Tj-4">
          <mxGeometry relative="1" as="geometry" />
        </mxCell>
        <mxCell id="zcSXq9ACbwz9R9wpJ7Tj-14" value="Начальное состояние" style="edgeLabel;html=1;align=center;verticalAlign=middle;resizable=0;points=[];" vertex="1" connectable="0" parent="zcSXq9ACbwz9R9wpJ7Tj-13">
          <mxGeometry x="-0.3511" y="-2" relative="1" as="geometry">
            <mxPoint as="offset" />
          </mxGeometry>
        </mxCell>
        <mxCell id="zcSXq9ACbwz9R9wpJ7Tj-3" value="" style="shape=ellipse;html=1;fillColor=strokeColor;fontSize=18;fontColor=#ffffff;" vertex="1" parent="1">
          <mxGeometry x="150" y="120" width="40" height="40" as="geometry" />
        </mxCell>
        <mxCell id="zcSXq9ACbwz9R9wpJ7Tj-6" style="edgeStyle=orthogonalEdgeStyle;rounded=0;orthogonalLoop=1;jettySize=auto;html=1;entryX=0.5;entryY=0;entryDx=0;entryDy=0;" edge="1" parent="1" source="zcSXq9ACbwz9R9wpJ7Tj-4" target="zcSXq9ACbwz9R9wpJ7Tj-5">
          <mxGeometry relative="1" as="geometry" />
        </mxCell>
        <mxCell id="zcSXq9ACbwz9R9wpJ7Tj-17" value="Выбор Автомобиля" style="edgeLabel;html=1;align=center;verticalAlign=middle;resizable=0;points=[];" vertex="1" connectable="0" parent="zcSXq9ACbwz9R9wpJ7Tj-6">
          <mxGeometry x="-0.0286" y="-3" relative="1" as="geometry">
            <mxPoint as="offset" />
          </mxGeometry>
        </mxCell>
        <mxCell id="zcSXq9ACbwz9R9wpJ7Tj-4" value="Idle" style="shape=rect;rounded=1;html=1;whiteSpace=wrap;align=center;" vertex="1" parent="1">
          <mxGeometry x="250" y="240" width="100" height="40" as="geometry" />
        </mxCell>
        <mxCell id="zcSXq9ACbwz9R9wpJ7Tj-8" style="edgeStyle=orthogonalEdgeStyle;rounded=0;orthogonalLoop=1;jettySize=auto;html=1;" edge="1" parent="1" source="zcSXq9ACbwz9R9wpJ7Tj-5" target="zcSXq9ACbwz9R9wpJ7Tj-7">
          <mxGeometry relative="1" as="geometry" />
        </mxCell>
        <mxCell id="zcSXq9ACbwz9R9wpJ7Tj-5" value="CarSelected" style="shape=rect;rounded=1;html=1;whiteSpace=wrap;align=center;" vertex="1" parent="1">
          <mxGeometry x="250" y="350" width="100" height="40" as="geometry" />
        </mxCell>
        <mxCell id="zcSXq9ACbwz9R9wpJ7Tj-10" style="edgeStyle=orthogonalEdgeStyle;rounded=0;orthogonalLoop=1;jettySize=auto;html=1;entryX=0.5;entryY=0;entryDx=0;entryDy=0;" edge="1" parent="1" source="zcSXq9ACbwz9R9wpJ7Tj-7" target="zcSXq9ACbwz9R9wpJ7Tj-9">
          <mxGeometry relative="1" as="geometry" />
        </mxCell>
        <mxCell id="zcSXq9ACbwz9R9wpJ7Tj-20" value="Автомобиль прибыл" style="edgeLabel;html=1;align=center;verticalAlign=middle;resizable=0;points=[];" vertex="1" connectable="0" parent="zcSXq9ACbwz9R9wpJ7Tj-10">
          <mxGeometry x="-0.2867" relative="1" as="geometry">
            <mxPoint as="offset" />
          </mxGeometry>
        </mxCell>
        <mxCell id="zcSXq9ACbwz9R9wpJ7Tj-11" style="edgeStyle=orthogonalEdgeStyle;rounded=0;orthogonalLoop=1;jettySize=auto;html=1;entryX=1;entryY=0.5;entryDx=0;entryDy=0;" edge="1" parent="1" source="zcSXq9ACbwz9R9wpJ7Tj-7" target="zcSXq9ACbwz9R9wpJ7Tj-4">
          <mxGeometry relative="1" as="geometry">
            <Array as="points">
              <mxPoint x="440" y="470" />
              <mxPoint x="440" y="260" />
            </Array>
          </mxGeometry>
        </mxCell>
        <mxCell id="zcSXq9ACbwz9R9wpJ7Tj-19" value="Заказ подтвержден" style="edgeLabel;html=1;align=center;verticalAlign=middle;resizable=0;points=[];" vertex="1" connectable="0" parent="zcSXq9ACbwz9R9wpJ7Tj-11">
          <mxGeometry x="-0.1897" y="1" relative="1" as="geometry">
            <mxPoint as="offset" />
          </mxGeometry>
        </mxCell>
        <mxCell id="zcSXq9ACbwz9R9wpJ7Tj-7" value="OrderConfirmed" style="shape=rect;rounded=1;html=1;whiteSpace=wrap;align=center;" vertex="1" parent="1">
          <mxGeometry x="250" y="450" width="100" height="40" as="geometry" />
        </mxCell>
        <mxCell id="zcSXq9ACbwz9R9wpJ7Tj-9" value="CarArrived" style="shape=rect;rounded=1;html=1;whiteSpace=wrap;align=center;" vertex="1" parent="1">
          <mxGeometry x="250" y="550" width="100" height="40" as="geometry" />
        </mxCell>
        <mxCell id="zcSXq9ACbwz9R9wpJ7Tj-18" value="Заказ подтвержден" style="text;html=1;align=center;verticalAlign=middle;resizable=0;points=[];autosize=1;strokeColor=none;fillColor=none;" vertex="1" parent="1">
          <mxGeometry x="245" y="398" width="130" height="30" as="geometry" />
        </mxCell>
        <mxCell id="zcSXq9ACbwz9R9wpJ7Tj-21" value="" style="shape=mxgraph.sysml.actFinal;html=1;verticalLabelPosition=bottom;labelBackgroundColor=#ffffff;verticalAlign=top;" vertex="1" parent="1">
          <mxGeometry x="490" y="550" width="40" height="40" as="geometry" />
        </mxCell>
        <mxCell id="zcSXq9ACbwz9R9wpJ7Tj-22" style="edgeStyle=orthogonalEdgeStyle;rounded=0;orthogonalLoop=1;jettySize=auto;html=1;entryX=0;entryY=0.5;entryDx=0;entryDy=0;entryPerimeter=0;" edge="1" parent="1" source="zcSXq9ACbwz9R9wpJ7Tj-9" target="zcSXq9ACbwz9R9wpJ7Tj-21">
          <mxGeometry relative="1" as="geometry" />
        </mxCell>
        <mxCell id="P8Op2bgrnEXXzChHewrj-13" style="edgeStyle=orthogonalEdgeStyle;rounded=0;orthogonalLoop=1;jettySize=auto;html=1;entryX=0;entryY=0.5;entryDx=0;entryDy=0;" edge="1" parent="1" source="P8Op2bgrnEXXzChHewrj-1" target="P8Op2bgrnEXXzChHewrj-3">
          <mxGeometry relative="1" as="geometry">
            <Array as="points">
              <mxPoint x="760" y="230" />
            </Array>
          </mxGeometry>
        </mxCell>
        <mxCell id="P8Op2bgrnEXXzChHewrj-1" value="" style="shape=ellipse;html=1;fillColor=strokeColor;fontSize=18;fontColor=#ffffff;" vertex="1" parent="1">
          <mxGeometry x="740" y="110" width="40" height="40" as="geometry" />
        </mxCell>
        <mxCell id="P8Op2bgrnEXXzChHewrj-10" style="edgeStyle=orthogonalEdgeStyle;rounded=0;orthogonalLoop=1;jettySize=auto;html=1;" edge="1" parent="1" source="P8Op2bgrnEXXzChHewrj-3" target="P8Op2bgrnEXXzChHewrj-5">
          <mxGeometry relative="1" as="geometry" />
        </mxCell>
        <mxCell id="P8Op2bgrnEXXzChHewrj-11" value="Выбор товаров" style="edgeLabel;html=1;align=center;verticalAlign=middle;resizable=0;points=[];" vertex="1" connectable="0" parent="P8Op2bgrnEXXzChHewrj-10">
          <mxGeometry x="-0.2" y="-3" relative="1" as="geometry">
            <mxPoint as="offset" />
          </mxGeometry>
        </mxCell>
        <mxCell id="P8Op2bgrnEXXzChHewrj-3" value="select" style="shape=rect;rounded=1;html=1;whiteSpace=wrap;align=center;" vertex="1" parent="1">
          <mxGeometry x="810" y="210" width="100" height="40" as="geometry" />
        </mxCell>
        <mxCell id="P8Op2bgrnEXXzChHewrj-12" style="edgeStyle=orthogonalEdgeStyle;rounded=0;orthogonalLoop=1;jettySize=auto;html=1;entryX=0.5;entryY=0;entryDx=0;entryDy=0;" edge="1" parent="1" source="P8Op2bgrnEXXzChHewrj-5" target="P8Op2bgrnEXXzChHewrj-6">
          <mxGeometry relative="1" as="geometry" />
        </mxCell>
        <mxCell id="P8Op2bgrnEXXzChHewrj-5" value="zakaz" style="shape=rect;rounded=1;html=1;whiteSpace=wrap;align=center;" vertex="1" parent="1">
          <mxGeometry x="810" y="300" width="100" height="40" as="geometry" />
        </mxCell>
        <mxCell id="P8Op2bgrnEXXzChHewrj-15" style="edgeStyle=orthogonalEdgeStyle;rounded=0;orthogonalLoop=1;jettySize=auto;html=1;" edge="1" parent="1" source="P8Op2bgrnEXXzChHewrj-6" target="P8Op2bgrnEXXzChHewrj-7">
          <mxGeometry relative="1" as="geometry" />
        </mxCell>
        <mxCell id="P8Op2bgrnEXXzChHewrj-6" value="pay" style="shape=rect;rounded=1;html=1;whiteSpace=wrap;align=center;" vertex="1" parent="1">
          <mxGeometry x="810" y="390" width="100" height="40" as="geometry" />
        </mxCell>
        <mxCell id="P8Op2bgrnEXXzChHewrj-16" style="edgeStyle=orthogonalEdgeStyle;rounded=0;orthogonalLoop=1;jettySize=auto;html=1;" edge="1" parent="1" source="P8Op2bgrnEXXzChHewrj-7" target="P8Op2bgrnEXXzChHewrj-9">
          <mxGeometry relative="1" as="geometry" />
        </mxCell>
        <mxCell id="P8Op2bgrnEXXzChHewrj-7" value="Подтверждение оплаты" style="shape=rect;rounded=1;html=1;whiteSpace=wrap;align=center;" vertex="1" parent="1">
          <mxGeometry x="810" y="480" width="100" height="40" as="geometry" />
        </mxCell>
        <mxCell id="P8Op2bgrnEXXzChHewrj-8" value="Отправка заказа" style="shape=rect;rounded=1;html=1;whiteSpace=wrap;align=center;" vertex="1" parent="1">
          <mxGeometry x="810" y="660" width="100" height="40" as="geometry" />
        </mxCell>
        <mxCell id="P8Op2bgrnEXXzChHewrj-17" style="edgeStyle=orthogonalEdgeStyle;rounded=0;orthogonalLoop=1;jettySize=auto;html=1;" edge="1" parent="1" source="P8Op2bgrnEXXzChHewrj-9" target="P8Op2bgrnEXXzChHewrj-8">
          <mxGeometry relative="1" as="geometry" />
        </mxCell>
        <mxCell id="P8Op2bgrnEXXzChHewrj-9" value="Обработка заказа" style="shape=rect;rounded=1;html=1;whiteSpace=wrap;align=center;" vertex="1" parent="1">
          <mxGeometry x="810" y="580" width="100" height="40" as="geometry" />
        </mxCell>
      </root>
    </mxGraphModel>
  </diagram>
</mxfile>
